  0
SECTION
  2
HEADER
  9
$ACADVER
  1
AC1024
  9
$ACADMAINTVER
 70
     6
  9
$DWGCODEPAGE
  3
ANSI_1252
  9
$INSBASE
 10
0.0
 20
0.0
 30
0.0
  9
$EXTMIN
 10
1.000000000000000E+20
 20
1.000000000000000E+20
 30
1.000000000000000E+20
  9
$EXTMAX
 10
-1.000000000000000E+20
 20
-1.000000000000000E+20
 30
-1.000000000000000E+20
  9
$LIMMIN
 10
0.0
 20
0.0
  9
$LIMMAX
 10
12.0
 20
9.0
  9
$ORTHOMODE
 70
     0
  9
$REGENMODE
 70
     1
  9
$FILLMODE
 70
     1
  9
$QTEXTMODE
 70
     0
  9
$MIRRTEXT
 70
     1
  9
$LTSCALE
 40
1.0
  9
$ATTMODE
 70
     1
  9
$TEXTSIZE
 40
0.2
  9
$TRACEWID
 40
0.05
  9
$TEXTSTYLE
  7
Standard
  9
$CLAYER
  8
0
  9
$CELTYPE
  6
ByLayer
  9
$CECOLOR
 62
   256
  9
$CELTSCALE
 40
1.0
  9
$DISPSILH
 70
     0
  9
$DIMSCALE
 40
1.0
  9
$DIMASZ
 40
0.18
  9
$DIMEXO
 40
0.0625
  9
$DIMDLI
 40
0.38
  9
$DIMRND
 40
0.0
  9
$DIMDLE
 40
0.0
  9
$DIMEXE
 40
0.18
  9
$DIMTP
 40
0.0
  9
$DIMTM
 40
0.0
  9
$DIMTXT
 40
0.18
  9
$DIMCEN
 40
0.09
  9
$DIMTSZ
 40
0.0
  9
$DIMTOL
 70
     0
  9
$DIMLIM
 70
     0
  9
$DIMTIH
 70
     1
  9
$DIMTOH
 70
     1
  9
$DIMSE1
 70
     0
  9
$DIMSE2
 70
     0
  9
$DIMTAD
 70
     0
  9
$DIMZIN
 70
     0
  9
$DIMBLK
  1

  9
$DIMASO
 70
     1
  9
$DIMSHO
 70
     1
  9
$DIMPOST
  1

  9
$DIMAPOST
  1

  9
$DIMALT
 70
     0
  9
$DIMALTD
 70
     2
  9
$DIMALTF
 40
25.4
  9
$DIMLFAC
 40
1.0
  9
$DIMTOFL
 70
     0
  9
$DIMTVP
 40
0.0
  9
$DIMTIX
 70
     0
  9
$DIMSOXD
 70
     0
  9
$DIMSAH
 70
     0
  9
$DIMBLK1
  1

  9
$DIMBLK2
  1

  9
$DIMSTYLE
  2
Standard
  9
$DIMCLRD
 70
     0
  9
$DIMCLRE
 70
     0
  9
$DIMCLRT
 70
     0
  9
$DIMTFAC
 40
1.0
  9
$DIMGAP
 40
0.09
  9
$DIMJUST
 70
     0
  9
$DIMSD1
 70
     0
  9
$DIMSD2
 70
     0
  9
$DIMTOLJ
 70
     1
  9
$DIMTZIN
 70
     0
  9
$DIMALTZ
 70
     0
  9
$DIMALTTZ
 70
     0
  9
$DIMUPT
 70
     0
  9
$DIMDEC
 70
     4
  9
$DIMTDEC
 70
     4
  9
$DIMALTU
 70
     2
  9
$DIMALTTD
 70
     2
  9
$DIMTXSTY
  7
Standard
  9
$DIMAUNIT
 70
     0
  9
$DIMADEC
 70
     0
  9
$DIMALTRND
 40
0.0
  9
$DIMAZIN
 70
     0
  9
$DIMDSEP
 70
    46
  9
$DIMATFIT
 70
     3
  9
$DIMFRAC
 70
     0
  9
$DIMLDRBLK
  1

  9
$DIMLUNIT
 70
     2
  9
$DIMLWD
 70
    -2
  9
$DIMLWE
 70
    -2
  9
$DIMTMOVE
 70
     0
  9
$DIMFXL
 40
1.0
  9
$DIMFXLON
 70
     0
  9
$DIMJOGANG
 40
0.7853981633974483
  9
$DIMTFILL
 70
     0
  9
$DIMTFILLCLR
 70
     0
  9
$DIMARCSYM
 70
     0
  9
$DIMLTYPE
  6

  9
$DIMLTEX1
  6

  9
$DIMLTEX2
  6

  9
$DIMTXTDIRECTION
 70
     0
  9
$LUNITS
 70
     2
  9
$LUPREC
 70
     4
  9
$SKETCHINC
 40
0.1
  9
$FILLETRAD
 40
0.5
  9
$AUNITS
 70
     0
  9
$AUPREC
 70
     0
  9
$MENU
  1
.
  9
$ELEVATION
 40
0.0
  9
$PELEVATION
 40
0.0
  9
$THICKNESS
 40
0.0
  9
$LIMCHECK
 70
     0
  9
$CHAMFERA
 40
0.5
  9
$CHAMFERB
 40
0.5
  9
$CHAMFERC
 40
1.0
  9
$CHAMFERD
 40
0.0
  9
$SKPOLY
 70
     0
  9
$TDCREATE
 40
2458366.508499097
  9
$TDUCREATE
 40
2458366.091832431
  9
$TDUPDATE
 40
2458366.508499225
  9
$TDUUPDATE
 40
2458366.091832558
  9
$TDINDWG
 40
0.0000000116
  9
$TDUSRTIMER
 40
0.0000000116
  9
$USRTIMER
 70
     1
  9
$ANGBASE
 50
0.0
  9
$ANGDIR
 70
     0
  9
$PDMODE
 70
     0
  9
$PDSIZE
 40
0.0
  9
$PLINEWID
 40
0.0
  9
$SPLFRAME
 70
     0
  9
$SPLINETYPE
 70
     6
  9
$SPLINESEGS
 70
     8
  9
$HANDSEED
  5
4B
  9
$SURFTAB1
 70
     6
  9
$SURFTAB2
 70
     6
  9
$SURFTYPE
 70
     6
  9
$SURFU
 70
     6
  9
$SURFV
 70
     6
  9
$UCSBASE
  2

  9
$UCSNAME
  2

  9
$UCSORG
 10
0.0
 20
0.0
 30
0.0
  9
$UCSXDIR
 10
1.0
 20
0.0
 30
0.0
  9
$UCSYDIR
 10
0.0
 20
1.0
 30
0.0
  9
$UCSORTHOREF
  2

  9
$UCSORTHOVIEW
 70
     0
  9
$UCSORGTOP
 10
0.0
 20
0.0
 30
0.0
  9
$UCSORGBOTTOM
 10
0.0
 20
0.0
 30
0.0
  9
$UCSORGLEFT
 10
0.0
 20
0.0
 30
0.0
  9
$UCSORGRIGHT
 10
0.0
 20
0.0
 30
0.0
  9
$UCSORGFRONT
 10
0.0
 20
0.0
 30
0.0
  9
$UCSORGBACK
 10
0.0
 20
0.0
 30
0.0
  9
$PUCSBASE
  2

  9
$PUCSNAME
  2

  9
$PUCSORG
 10
0.0
 20
0.0
 30
0.0
  9
$PUCSXDIR
 10
1.0
 20
0.0
 30
0.0
  9
$PUCSYDIR
 10
0.0
 20
1.0
 30
0.0
  9
$PUCSORTHOREF
  2

  9
$PUCSORTHOVIEW
 70
     0
  9
$PUCSORGTOP
 10
0.0
 20
0.0
 30
0.0
  9
$PUCSORGBOTTOM
 10
0.0
 20
0.0
 30
0.0
  9
$PUCSORGLEFT
 10
0.0
 20
0.0
 30
0.0
  9
$PUCSORGRIGHT
 10
0.0
 20
0.0
 30
0.0
  9
$PUCSORGFRONT
 10
0.0
 20
0.0
 30
0.0
  9
$PUCSORGBACK
 10
0.0
 20
0.0
 30
0.0
  9
$USERI1
 70
     0
  9
$USERI2
 70
     0
  9
$USERI3
 70
     0
  9
$USERI4
 70
     0
  9
$USERI5
 70
     0
  9
$USERR1
 40
0.0
  9
$USERR2
 40
0.0
  9
$USERR3
 40
0.0
  9
$USERR4
 40
0.0
  9
$USERR5
 40
0.0
  9
$WORLDVIEW
 70
     1
  9
$SHADEDGE
 70
     3
  9
$SHADEDIF
 70
    70
  9
$TILEMODE
 70
     1
  9
$MAXACTVP
 70
    64
  9
$PINSBASE
 10
0.0
 20
0.0
 30
0.0
  9
$PLIMCHECK
 70
     0
  9
$PEXTMIN
 10
1.000000000000000E+20
 20
1.000000000000000E+20
 30
1.000000000000000E+20
  9
$PEXTMAX
 10
-1.000000000000000E+20
 20
-1.000000000000000E+20
 30
-1.000000000000000E+20
  9
$PLIMMIN
 10
0.0
 20
0.0
  9
$PLIMMAX
 10
12.0
 20
9.0
  9
$UNITMODE
 70
     0
  9
$VISRETAIN
 70
     1
  9
$PLINEGEN
 70
     0
  9
$PSLTSCALE
 70
     1
  9
$TREEDEPTH
 70
  3020
  9
$CMLSTYLE
  2
Standard
  9
$CMLJUST
 70
     0
  9
$CMLSCALE
 40
1.0
  9
$PROXYGRAPHICS
 70
     1
  9
$MEASUREMENT
 70
     0
  9
$CELWEIGHT
370
    -1
  9
$ENDCAPS
280
     0
  9
$JOINSTYLE
280
     0
  9
$LWDISPLAY
290
     1
  9
$INSUNITS
 70
     1
  9
$HYPERLINKBASE
  1

  9
$STYLESHEET
  1

  9
$XEDIT
290
     1
  9
$CEPSNTYPE
380
     0
  9
$PSTYLEMODE
290
     1
  9
$FINGERPRINTGUID
  2
{1FBF3B84-4F2D-4ED3-AC04-1DB930FAC4E7}
  9
$VERSIONGUID
  2
{FAEB1C32-E019-11D5-929B-00C0DF256EC4}
  9
$EXTNAMES
290
     1
  9
$PSVPSCALE
 40
0.0
  9
$OLESTARTUP
290
     0
  9
$SORTENTS
280
   127
  9
$INDEXCTL
280
     0
  9
$HIDETEXT
280
     1
  9
$XCLIPFRAME
280
     2
  9
$HALOGAP
280
     0
  9
$OBSCOLOR
 70
   257
  9
$OBSLTYPE
280
     0
  9
$INTERSECTIONDISPLAY
280
     0
  9
$INTERSECTIONCOLOR
 70
   257
  9
$DIMASSOC
280
     2
  9
$PROJECTNAME
  1

  9
$CAMERADISPLAY
290
     0
  9
$LENSLENGTH
 40
50.0
  9
$CAMERAHEIGHT
 40
0.0
  9
$STEPSPERSEC
 40
2.0
  9
$STEPSIZE
 40
6.0
  9
$3DDWFPREC
 40
2.0
  9
$PSOLWIDTH
 40
0.25
  9
$PSOLHEIGHT
 40
4.0
  9
$LOFTANG1
 40
1.570796326794897
  9
$LOFTANG2
 40
1.570796326794897
  9
$LOFTMAG1
 40
0.0
  9
$LOFTMAG2
 40
0.0
  9
$LOFTPARAM
 70
     7
  9
$LOFTNORMALS
280
     1
  9
$LATITUDE
 40
37.795
  9
$LONGITUDE
 40
-122.394
  9
$NORTHDIRECTION
 40
0.0
  9
$TIMEZONE
 70
 -8000
  9
$LIGHTGLYPHDISPLAY
280
     1
  9
$TILEMODELIGHTSYNCH
280
     1
  9
$CMATERIAL
347
3C
  9
$SOLIDHIST
280
     1
  9
$SHOWHIST
280
     1
  9
$DWFFRAME
280
     2
  9
$DGNFRAME
280
     2
  9
$REALWORLDSCALE
290
     1
  9
$INTERFERECOLOR
 62
   256
  9
$CSHADOW
280
     0
  9
$SHADOWPLANELOCATION
 40
0.0
  0
ENDSEC
  0
SECTION
  2
CLASSES
  0
CLASS
  1
ACDBDICTIONARYWDFLT
  2
AcDbDictionaryWithDefault
  3
ObjectDBX Classes
 90
        0
 91
        4
280
     0
281
     0
  0
CLASS
  1
VISUALSTYLE
  2
AcDbVisualStyle
  3
ObjectDBX Classes
 90
     4095
 91
        4
280
     0
281
     0
  0
CLASS
  1
MATERIAL
  2
AcDbMaterial
  3
ObjectDBX Classes
 90
     1153
 91
        4
280
     0
281
     0
  0
CLASS
  1
SUN
  2
AcDbSun
  3
SCENEOE
 90
     1024
 91
        4
280
     0
281
     0
  0
ENDSEC
  0
SECTION
  2
TABLES
  0
TABLE
  2
VPORT
  5
8
330
0
100
AcDbSymbolTable
 70
     1
  0
VPORT
  5
29
330
8
100
AcDbSymbolTableRecord
100
AcDbViewportTableRecord
  2
*Active
 70
     0
 10
0.0
 20
0.0
 11
1.0
 21
1.0
 12
0.0
 22
0.0
 13
0.0
 23
0.0
 14
0.5
 24
0.5
 15
0.5
 25
0.5
 16
0.0
 26
0.0
 36
1.0
 17
6.0
 27
-6.0
 37
0.0
 40
12.0
 41
1.0
 42
50.0
 43
0.0
 44
0.0
 50
0.0
 51
0.0
 71
     0
 72
   100
 73
     1
 74
     3
 75
     0
 76
     0
 77
     0
 78
     0
281
     0
 65
     1
110
0.0
120
0.0
130
0.0
111
1.0
121
0.0
131
0.0
112
0.0
122
1.0
132
0.0
 79
     0
146
0.0
 60
     3
 61
     5
292
     1
282
     1
141
0.0
142
0.0
 63
   250
361
3F
  0
ENDTAB
  0
TABLE
  2
LTYPE
  5
5
330
0
100
AcDbSymbolTable
 70
     1
  0
LTYPE
  5
14
330
5
100
AcDbSymbolTableRecord
100
AcDbLinetypeTableRecord
  2
ByBlock
 70
     0
  3

 72
    65
 73
     0
 40
0.0
  0
LTYPE
  5
15
330
5
100
AcDbSymbolTableRecord
100
AcDbLinetypeTableRecord
  2
ByLayer
 70
     0
  3

 72
    65
 73
     0
 40
0.0
  0
LTYPE
  5
16
330
5
100
AcDbSymbolTableRecord
100
AcDbLinetypeTableRecord
  2
Continuous
 70
     0
  3
Solid line
 72
    65
 73
     0
 40
0.0
  0
ENDTAB
  0
TABLE
  2
LAYER
  5
2
330
0
100
AcDbSymbolTable
 70
     2
  0
LAYER
  5
10
330
2
100
AcDbSymbolTableRecord
100
AcDbLayerTableRecord
  2
0
 70
     0
 62
     7
  6
Continuous
370
    -3
390
F
347
3E
  0
LAYER
  5
40
330
2
100
AcDbSymbolTableRecord
100
AcDbLayerTableRecord
  2
Layer 1
 70
     0
 62
     7
  6
Continuous
370
    -3
390
F
347
3E
  0
ENDTAB
  0
TABLE
  2
STYLE
  5
3
330
0
100
AcDbSymbolTable
 70
     1
  0
STYLE
  5
11
330
3
100
AcDbSymbolTableRecord
100
AcDbTextStyleTableRecord
  2
Standard
 70
     0
 40
0.0
 41
1.0
 50
0.0
 71
     0
 42
0.2
  3
txt
  4

  0
ENDTAB
  0
TABLE
  2
VIEW
  5
6
330
0
100
AcDbSymbolTable
 70
     0
  0
ENDTAB
  0
TABLE
  2
UCS
  5
7
330
0
100
AcDbSymbolTable
 70
     0
  0
ENDTAB
  0
TABLE
  2
APPID
  5
9
330
0
100
AcDbSymbolTable
 70
     1
  0
APPID
  5
12
330
9
100
AcDbSymbolTableRecord
100
AcDbRegAppTableRecord
  2
ACAD
 70
     0
  0
ENDTAB
  0
TABLE
  2
DIMSTYLE
  5
A
330
0
100
AcDbSymbolTable
 70
     1
100
AcDbDimStyleTable
  0
DIMSTYLE
105
27
330
A
100
AcDbSymbolTableRecord
100
AcDbDimStyleTableRecord
  2
Standard
 70
     0
178
     0
340
11
  0
ENDTAB
  0
TABLE
  2
BLOCK_RECORD
  5
1
330
0
100
AcDbSymbolTable
 70
     1
  0
BLOCK_RECORD
  5
1F
330
1
100
AcDbSymbolTableRecord
100
AcDbBlockTableRecord
  2
*Model_Space
340
22
 70
     0
280
     1
281
     0
  0
BLOCK_RECORD
  5
1B
330
1
100
AcDbSymbolTableRecord
100
AcDbBlockTableRecord
  2
*Paper_Space
340
1E
 70
     0
280
     1
281
     0
  0
BLOCK_RECORD
  5
23
330
1
100
AcDbSymbolTableRecord
100
AcDbBlockTableRecord
  2
*Paper_Space0
340
26
 70
     0
280
     1
281
     0
  0
ENDTAB
  0
ENDSEC
  0
SECTION
  2
BLOCKS
  0
BLOCK
  5
20
330
1F
100
AcDbEntity
  8
0
100
AcDbBlockBegin
  2
*Model_Space
 70
     0
 10
0.0
 20
0.0
 30
0.0
  3
*Model_Space
  1

  0
ENDBLK
  5
21
330
1F
100
AcDbEntity
  8
0
100
AcDbBlockEnd
  0
BLOCK
  5
1C
330
1B
100
AcDbEntity
 67
     1
  8
0
100
AcDbBlockBegin
  2
*Paper_Space
 70
     0
 10
0.0
 20
0.0
 30
0.0
  3
*Paper_Space
  1

  0
ENDBLK
  5
1D
330
1B
100
AcDbEntity
 67
     1
  8
0
100
AcDbBlockEnd
  0
BLOCK
  5
24
330
23
100
AcDbEntity
  8
0
100
AcDbBlockBegin
  2
*Paper_Space0
 70
     0
 10
0.0
 20
0.0
 30
0.0
  3
*Paper_Space0
  1

  0
ENDBLK
  5
25
330
23
100
AcDbEntity
  8
0
100
AcDbBlockEnd
  0
ENDSEC
  0
SECTION
  2
ENTITIES
  0
SPLINE
  5
41
330
1F
100
AcDbEntity
  8
Layer 1
370
     0
100
AcDbSpline
210
0.0
220
0.0
230
1.0
 70
    11
 71
     3
 72
   239
 73
   235
 74
     0
 42
0.0000000001
 43
0.0000000001
 12
1.0
 22
0.0
 32
0.0
 13
1.0
 23
0.0
 33
0.0
 40
0.0
 40
0.0
 40
0.0
 40
0.0
 40
1.0
 40
1.0
 40
1.0
 40
2.0
 40
2.0
 40
2.0
 40
3.0
 40
3.0
 40
3.0
 40
4.0
 40
4.0
 40
4.0
 40
5.0
 40
5.0
 40
5.0
 40
6.0
 40
6.0
 40
6.0
 40
7.0
 40
7.0
 40
7.0
 40
8.0
 40
8.0
 40
8.0
 40
9.0
 40
9.0
 40
9.0
 40
10.0
 40
10.0
 40
10.0
 40
11.0
 40
11.0
 40
11.0
 40
12.0
 40
12.0
 40
12.0
 40
13.0
 40
13.0
 40
13.0
 40
14.0
 40
14.0
 40
14.0
 40
15.0
 40
15.0
 40
15.0
 40
16.0
 40
16.0
 40
16.0
 40
17.0
 40
17.0
 40
17.0
 40
18.0
 40
18.0
 40
18.0
 40
19.0
 40
19.0
 40
19.0
 40
20.0
 40
20.0
 40
20.0
 40
21.0
 40
21.0
 40
21.0
 40
22.0
 40
22.0
 40
22.0
 40
23.0
 40
23.0
 40
23.0
 40
24.0
 40
24.0
 40
24.0
 40
25.0
 40
25.0
 40
25.0
 40
26.0
 40
26.0
 40
26.0
 40
27.0
 40
27.0
 40
27.0
 40
28.0
 40
28.0
 40
28.0
 40
29.0
 40
29.0
 40
29.0
 40
30.0
 40
30.0
 40
30.0
 40
31.0
 40
31.0
 40
31.0
 40
32.0
 40
32.0
 40
32.0
 40
33.0
 40
33.0
 40
33.0
 40
34.0
 40
34.0
 40
34.0
 40
35.0
 40
35.0
 40
35.0
 40
36.0
 40
36.0
 40
36.0
 40
37.0
 40
37.0
 40
37.0
 40
38.0
 40
38.0
 40
38.0
 40
39.0
 40
39.0
 40
39.0
 40
40.0
 40
40.0
 40
40.0
 40
41.0
 40
41.0
 40
41.0
 40
42.0
 40
42.0
 40
42.0
 40
43.0
 40
43.0
 40
43.0
 40
44.0
 40
44.0
 40
44.0
 40
45.0
 40
45.0
 40
45.0
 40
46.0
 40
46.0
 40
46.0
 40
47.0
 40
47.0
 40
47.0
 40
48.0
 40
48.0
 40
48.0
 40
49.0
 40
49.0
 40
49.0
 40
50.0
 40
50.0
 40
50.0
 40
51.0
 40
51.0
 40
51.0
 40
52.0
 40
52.0
 40
52.0
 40
53.0
 40
53.0
 40
53.0
 40
54.0
 40
54.0
 40
54.0
 40
55.0
 40
55.0
 40
55.0
 40
56.0
 40
56.0
 40
56.0
 40
57.0
 40
57.0
 40
57.0
 40
58.0
 40
58.0
 40
58.0
 40
59.0
 40
59.0
 40
59.0
 40
60.0
 40
60.0
 40
60.0
 40
61.0
 40
61.0
 40
61.0
 40
62.0
 40
62.0
 40
62.0
 40
63.0
 40
63.0
 40
63.0
 40
64.0
 40
64.0
 40
64.0
 40
65.0
 40
65.0
 40
65.0
 40
66.0
 40
66.0
 40
66.0
 40
67.0
 40
67.0
 40
67.0
 40
68.0
 40
68.0
 40
68.0
 40
69.0
 40
69.0
 40
69.0
 40
70.0
 40
70.0
 40
70.0
 40
71.0
 40
71.0
 40
71.0
 40
72.0
 40
72.0
 40
72.0
 40
73.0
 40
73.0
 40
73.0
 40
74.0
 40
74.0
 40
74.0
 40
75.0
 40
75.0
 40
75.0
 40
76.0
 40
76.0
 40
76.0
 40
77.0
 40
77.0
 40
77.0
 40
78.0
 40
78.0
 40
78.0
 40
78.0
 10
9.895619418388959
 20
-8.7676012422078
 30
0.0
 10
9.77926298775608
 20
-7.934604418096215
 30
0.0
 10
9.274790751895909
 20
-7.083126213242672
 30
0.0
 10
8.259921887675318
 20
-6.006745811718499
 30
0.0
 10
7.541456508920671
 20
-5.244732743264257
 30
0.0
 10
7.258719984084488
 20
-4.537591806725471
 30
0.0
 10
7.484207810358586
 20
-4.066629841547334
 30
0.0
 10
7.656975353027645
 20
-3.705773051467367
 30
0.0
 10
8.075693709859378
 20
-3.568109236773517
 30
0.0
 10
8.391749835274165
 20
-3.592875921282901
 30
0.0
 10
8.757632144509444
 20
-3.621571771852738
 30
0.0
 10
8.910011605402032
 20
-3.85107728959248
 30
0.0
 10
8.973416224447066
 20
-4.038553668813721
 30
0.0
 10
9.064869777639514
 20
-4.308985162330575
 30
0.0
 10
9.012067778275826
 20
-4.642964277470065
 30
0.0
 10
8.855704674150376
 20
-4.783038707043298
 30
0.0
 10
8.821840301847613
 20
-4.813375682432151
 30
0.0
 10
8.58425428726817
 20
-4.999821251406577
 30
0.0
 10
8.416579509014152
 20
-4.817566168679049
 30
0.0
 10
8.192975401217456
 20
-4.574518817564959
 30
0.0
 10
8.434805528010404
 20
-4.343703294069782
 30
0.0
 10
8.434805528010404
 20
-4.343703294069782
 30
0.0
 10
8.434805528010404
 20
-4.343703294069782
 30
0.0
 10
8.792025115625796
 20
-4.073965533295399
 30
0.0
 10
8.595189728424758
 20
-3.86254984162085
 30
0.0
 10
8.398354341223719
 20
-3.651134149946314
 30
0.0
 10
7.461563181955953
 20
-3.92816163735453
 30
0.0
 10
7.57884827813733
 20
-4.736297293110838
 30
0.0
 10
7.608042084111275
 20
-4.937454252254889
 30
0.0
 10
7.715688125598389
 20
-5.223037209349804
 30
0.0
 10
8.158941638956724
 20
-5.429498883157811
 30
0.0
 10
8.594234675495853
 20
-5.632256109241577
 30
0.0
 10
9.021172275715747
 20
-5.589716247231662
 30
0.0
 10
9.330282561647588
 20
-5.312808779843913
 30
0.0
 10
9.703042613900328
 20
-4.978877332230291
 30
0.0
 10
9.833352010318094
 20
-4.361181103151125
 30
0.0
 10
9.64717627358828
 20
-3.810689275892981
 30
0.0
 10
9.466019246367244
 20
-3.275015239531828
 30
0.0
 10
9.017488256931149
 20
-2.928513184383342
 30
0.0
 10
8.447357409017235
 20
-2.883801045123366
 30
0.0
 10
8.135434739059468
 20
-2.859354414001928
 30
0.0
 10
7.809783821653
 20
-2.924332061400453
 30
0.0
 10
7.530370404334134
 20
-3.066823915499627
 30
0.0
 10
7.222199849626476
 20
-3.223983748271659
 30
0.0
 10
6.984406992033023
 20
-3.463499446442749
 30
0.0
 10
6.842698247287317
 20
-3.759480733822455
 30
0.0
 10
6.631490249832622
 20
-4.20060282781003
 30
0.0
 10
6.467534389801762
 20
-5.142519948519761
 30
0.0
 10
7.742415988314733
 20
-6.494670606457525
 30
0.0
 10
8.637455502160972
 20
-7.443955764736428
 30
0.0
 10
9.097821657304292
 20
-8.197463584647316
 30
0.0
 10
9.191202340470934
 20
-8.866000634883196
 30
0.0
 10
9.276288874137334
 20
-9.475135435834948
 30
0.0
 10
8.733211049562593
 20
-10.82837308360356
 30
0.0
 10
8.369349502941581
 20
-10.83633696524602
 30
0.0
 10
8.115663781501755
 20
-10.84188852959748
 30
0.0
 10
8.187847737363857
 20
-10.44720652268244
 30
0.0
 10
8.214878629351762
 20
-10.19490401069849
 30
0.0
 10
8.262966650889869
 20
-9.746062331138445
 30
0.0
 10
8.340155696967637
 20
-9.299531675377011
 30
0.0
 10
8.32341588333136
 20
-8.84843174677922
 30
0.0
 10
8.298843273748718
 20
-8.186246394364641
 30
0.0
 10
8.100291855616584
 20
-7.685631823276101
 30
0.0
 10
7.792217487166454
 20
-7.109666810678846
 30
0.0
 10
7.511668561285078
 20
-6.585162297074476
 30
0.0
 10
7.265865005729084
 20
-6.267959597421496
 30
0.0
 10
6.506523872340646
 20
-5.561801803603657
 30
0.0
 10
6.319184537256281
 20
-5.387582955013221
 30
0.0
 10
6.124997251358132
 20
-5.248099262278363
 30
0.0
 10
5.884752921005984
 20
-5.031588252571345
 30
0.0
 10
5.641098660142941
 20
-4.81200353865193
 30
0.0
 10
5.579634790365213
 20
-4.565652657754336
 30
0.0
 10
5.548711334167087
 20
-4.35542865422638
 30
0.0
 10
5.484166099324587
 20
-3.91664312021194
 30
0.0
 10
5.621850342958092
 20
-3.868772156157686
 30
0.0
 10
5.86722489078132
 20
-3.505683504420328
 30
0.0
 10
5.971530800634708
 20
-3.590592136070541
 30
0.0
 10
6.077391012313582
 20
-3.688428030493785
 30
0.0
 10
6.180943605017167
 20
-3.800951481323712
 30
0.0
 10
6.193316732802006
 20
-3.814393723617235
 30
0.0
 10
6.21019784660426
 20
-3.821210179815719
 30
0.0
 10
6.227133437578914
 20
-3.821210179815719
 30
0.0
 10
6.242325759036273
 20
-3.821210179815719
 30
0.0
 10
6.257558938372944
 20
-3.815728414341404
 30
0.0
 10
6.269618822416406
 20
-3.804628690461755
 30
0.0
 10
6.295120948753391
 20
-3.781162648443809
 30
0.0
 10
6.296768883218975
 20
-3.741462409046044
 30
0.0
 10
6.273296031554461
 20
-3.715953473062503
 30
0.0
 10
6.16158718469329
 20
-3.594566416039406
 30
0.0
 10
6.047748620873007
 20
-3.489714032050225
 30
0.0
 10
5.935935075696104
 20
-3.399192549229585
 30
0.0
 10
5.95009573570087
 20
-3.375838866379733
 30
0.0
 10
5.963443494148451
 20
-3.352396658124702
 30
0.0
 10
5.976392888272787
 20
-3.328914443196191
 30
0.0
 10
6.133071789757069
 20
-3.382705543721537
 30
0.0
 10
6.28858964650428
 20
-3.448159866378698
 30
0.0
 10
6.432982243197253
 20
-3.527891464237819
 30
0.0
 10
6.442597464128589
 20
-3.53320298854832
 30
0.0
 10
6.453002604059924
 20
-3.535722557772538
 30
0.0
 10
6.463264741413695
 20
-3.535722557772538
 30
0.0
 10
6.485375663767804
 20
-3.535722557772538
 30
0.0
 10
6.506812431113303
 20
-3.524009965703208
 30
0.0
 10
6.518259446967098
 20
-3.503288211245679
 30
0.0
 10
6.53501117748485
 20
-3.472944426210271
 30
0.0
 10
6.523999979010366
 20
-3.434769547640144
 30
0.0
 10
6.493656193974958
 20
-3.418011007475848
 30
0.0
 10
6.347126219470485
 20
-3.337100489557429
 30
0.0
 10
6.190979321623066
 20
-3.270440859460576
 30
0.0
 10
6.034127625357516
 20
-3.215447005112992
 30
0.0
 10
6.057809022447675
 20
-3.164537236284938
 30
0.0
 10
6.078782733827615
 20
-3.113390832239197
 30
0.0
 10
6.096874262304456
 20
-3.062046097237625
 30
0.0
 10
6.234506582383018
 20
-3.076694498176658
 30
0.0
 10
6.378205446333519
 20
-3.098861600114825
 30
0.0
 10
6.525702390648348
 20
-3.13085502202744
 30
0.0
 10
6.559600811183877
 20
-3.13818901136387
 30
0.0
 10
6.592995317874536
 20
-3.116697766845972
 30
0.0
 10
6.600336116857534
 20
-3.082819775250111
 30
0.0
 10
6.607676915840506
 20
-3.048948593300805
 30
0.0
 10
6.586178861676065
 20
-3.015533657670479
 30
0.0
 10
6.552300870080191
 20
-3.00818604904095
 30
0.0
 10
6.408490498167414
 20
-2.976997016627277
 30
0.0
 10
6.268646745371117
 20
-2.954785651986513
 30
0.0
 10
6.134491601063145
 20
-2.939532043710187
 30
0.0
 10
6.228394073396834
 20
-2.584869478375026
 30
0.0
 10
6.190856747985132
 20
-2.223207447590299
 30
0.0
 10
6.023092593120105
 20
-1.87196587844168
 30
0.0
 10
6.225135657521731
 20
-1.609540826858253
 30
0.0
 10
6.59348561242627
 20
-1.067067358415001
 30
0.0
 10
6.472935290723247
 20
-0.2500000000000126
 30
0.0
 10
5.516303375020621
 20
-0.4987095722220323
 30
0.0
 10
5.260957802233734
 20
-1.002465943988454
 30
0.0
 10
5.16593088701317
 20
-0.9565978672262897
 30
0.0
 10
5.05555332605291
 20
-0.9033191926039686
 30
0.0
 10
4.603405563091933
 20
-0.803319532988856
 30
0.0
 10
4.291596954713921
 20
-0.8085612584222114
 30
0.0
 10
3.77384761048908
 20
-0.8172656891272128
 30
0.0
 10
3.439070064291375
 20
-0.9063316099973866
 30
0.0
 10
3.439070064291375
 20
-0.9063316099973866
 30
0.0
 10
3.28276824698489
 20
-0.7026014556625139
 30
0.0
 10
2.939859982804187
 20
-0.3967640561047068
 30
0.0
 10
2.187611947505401
 20
-0.3331602548980249
 30
0.0
 10
2.228491106962489
 20
-0.988163132611943
 30
0.0
 10
2.374203072674895
 20
-1.475601037622482
 30
0.0
 10
2.583849958657563
 20
-1.762845548476068
 30
0.0
 10
2.583849958657563
 20
-1.762845548476068
 30
0.0
 10
2.573526534484851
 20
-1.795859566165644
 30
0.0
 10
2.573526534484851
 20
-1.795859566165644
 30
0.0
 10
2.409806458465836
 20
-2.246405359775281
 30
0.0
 10
2.384891664143955
 20
-2.669273344974588
 30
0.0
 10
2.5207262375328
 20
-3.040931085691732
 30
0.0
 10
2.394500075428747
 20
-3.056234915111379
 30
0.0
 10
2.262830452112237
 20
-3.078671849294172
 30
0.0
 10
2.12737892134194
 20
-3.110357985906123
 30
0.0
 10
2.093630313030568
 20
-3.118257175906365
 30
0.0
 10
2.072670220943716
 20
-3.152012593864292
 30
0.0
 10
2.080562601297414
 20
-3.185761202175664
 30
0.0
 10
2.088461791297656
 20
-3.21950300084048
 30
0.0
 10
2.122189970669372
 20
-3.240469902573889
 30
0.0
 10
2.155965817566943
 20
-3.23257752222019
 30
0.0
 10
2.299142041144579
 20
-3.199084275654513
 30
0.0
 10
2.438498904212413
 20
-3.17642773037043
 30
0.0
 10
2.571613023803744
 20
-3.161895093422787
 30
0.0
 10
2.591313331278494
 20
-3.203233052816282
 30
0.0
 10
2.613052276689713
 20
-3.243895154789508
 30
0.0
 10
2.637094585047129
 20
-3.283776701026706
 30
0.0
 10
2.481174959153375
 20
-3.340984541709493
 30
0.0
 10
2.325349817105512
 20
-3.411386923792457
 30
0.0
 10
2.179738293679748
 20
-3.498099260573111
 30
0.0
 10
2.149952899661583
 20
-3.515831580194344
 30
0.0
 10
2.140187866506115
 20
-3.554346941092073
 30
0.0
 10
2.157926995773904
 20
-3.584125525463668
 30
0.0
 10
2.169666826429446
 20
-3.603846261878061
 30
0.0
 10
2.190511154524908
 20
-3.614782554240453
 30
0.0
 10
2.211907063991071
 20
-3.614782554240453
 30
0.0
 10
2.22282292741382
 20
-3.614782554240453
 30
0.0
 10
2.233888603060703
 20
-3.611929312335203
 30
0.0
 10
2.243953260664461
 20
-3.605936823369499
 30
0.0
 10
2.39053856354715
 20
-3.51864651783775
 30
0.0
 10
2.549617014235183
 20
-3.448462895650259
 30
0.0
 10
2.708950826668923
 20
-3.392036461909318
 30
0.0
 10
2.75500191268217
 20
-3.455095491391843
 30
0.0
 10
2.807185085415464
 20
-3.515996714123225
 30
0.0
 10
2.865306269942014
 20
-3.574712891517252
 30
0.0
 10
2.786563773244577
 20
-3.648446893175749
 30
0.0
 10
2.707309701849908
 20
-3.730568676974586
 30
0.0
 10
2.629195395046887
 20
-3.822109053160564
 30
0.0
 10
2.606696322839298
 20
-3.848469194963096
 30
0.0
 10
2.609828760253195
 20
-3.888087718602239
 30
0.0
 10
2.636195711702258
 20
-3.91057998116326
 30
0.0
 10
2.648010448469879
 20
-3.92067187735323
 30
0.0
 10
2.662494566685837
 20
-3.925602061456832
 30
0.0
 10
2.676903778789715
 20
-3.925602061456832
 30
0.0
 10
2.694636098410936
 20
-3.925602061456832
 30
0.0
 10
2.712259463687335
 20
-3.918125069542801
 30
0.0
 10
2.724666639704967
 20
-3.903579664507876
 30
0.0
 10
2.801141524100608
 20
-3.813961311061184
 30
0.0
 10
2.879032814979054
 20
-3.733680685448828
 30
0.0
 10
2.956499354153847
 20
-3.661804866093184
 30
0.0
 10
3.036821688851331
 20
-3.737099128017892
 30
0.0
 10
3.114495922245927
 20
-3.816370223528931
 30
0.0
 10
3.171971041555884
 20
-3.909898165302252
 30
0.0
 10
3.280593416117376
 20
-4.086655309644925
 30
0.0
 10
3.287548618864346
 20
-4.268503515990978
 30
0.0
 10
3.265856489773164
 20
-4.474832401691237
 30
0.0
 10
3.222536923233065
 20
-4.886874751284608
 30
0.0
 10
3.079358997243793
 20
-5.280962616537989
 30
0.0
 10
2.987536020725909
 20
-5.684972988023357
 30
0.0
 10
2.75397706087612
 20
-6.712598022647348
 30
0.0
 10
2.861654596978547
 20
-7.528741822748694
 30
0.0
 10
3.275270826131216
 20
-8.498011591245914
 30
0.0
 10
3.386456181413703
 20
-8.758563990027545
 30
0.0
 10
3.519296212731332
 20
-9.010710731346661
 30
0.0
 10
3.605608482777067
 20
-9.280525100644757
 30
0.0
 10
3.751553678883889
 20
-9.736758651536901
 30
0.0
 10
3.714547505903233
 20
-10.50769065456254
 30
0.0
 10
3.720465939962676
 20
-10.98666246649736
 30
0.0
 10
3.720465939962676
 20
-10.98666246649736
 30
0.0
 10
3.720465939962676
 20
-11.02738159926048
 30
0.0
 10
3.720465939962676
 20
-11.02738159926048
 30
0.0
 10
3.720465939962676
 20
-11.02738159926048
 30
0.0
 10
3.442783875279651
 20
-11.02930447320558
 30
0.0
 10
3.325025508662899
 20
-11.11175397124473
 30
0.0
 10
3.21036638243312
 20
-11.19203459685708
 30
0.0
 10
3.180743568726408
 20
-11.41635031271845
 30
0.0
 10
3.264013629175047
 20
-11.51023405852412
 30
0.0
 10
3.356891249702686
 20
-11.61494939837641
 30
0.0
 10
3.565040013443927
 20
-11.65800849593592
 30
0.0
 10
3.70406490624234
 20
-11.67425290778556
 30
0.0
 10
5.366064696762805
 20
-11.86845211056518
 30
0.0
 10
7.781871931642449
 20
-11.63715991181137
 30
0.0
 10
8.450517085017331
 20
-11.5584965772551
 30
0.0
 10
9.738920939170812
 20
-11.40691895224401
 30
0.0
 10
10.01587777649605
 20
-9.628558475061608
 30
0.0
 10
9.895619418388959
 20
-8.7676012422078
 30
0.0
  0
SPLINE
  5
42
330
1F
100
AcDbEntity
  8
Layer 1
370
     0
100
AcDbSpline
210
0.0
220
0.0
230
1.0
 70
    11
 71
     3
 72
    14
 73
    10
 74
     0
 42
0.0000000001
 43
0.0000000001
 12
1.0
 22
0.0
 32
0.0
 13
1.0
 23
0.0
 33
0.0
 40
0.0
 40
0.0
 40
0.0
 40
0.0
 40
1.0
 40
1.0
 40
1.0
 40
2.0
 40
2.0
 40
2.0
 40
3.0
 40
3.0
 40
3.0
 40
3.0
 10
6.072369749187348
 20
-0.9239813626541666
 30
0.0
 10
6.069667170712036
 20
-1.391504456323585
 30
0.0
 10
5.745891459724817
 20
-1.629379029675659
 30
0.0
 10
5.745891459724817
 20
-1.629379029675659
 30
0.0
 10
5.658830979764186
 20
-1.390629416741667
 30
0.0
 10
5.452061169449684
 20
-1.276680196164913
 30
0.0
 10
5.452061169449684
 20
-1.276680196164913
 30
0.0
 10
5.669713646159986
 20
-0.9565382828189588
 30
0.0
 10
6.072369749187348
 20
-0.9239813626541666
 30
0.0
 10
6.072369749187348
 20
-0.9239813626541666
 30
0.0
  0
SPLINE
  5
43
330
1F
100
AcDbEntity
  8
Layer 1
370
     0
100
AcDbSpline
210
0.0
220
0.0
230
1.0
 70
    11
 71
     3
 72
    14
 73
    10
 74
     0
 42
0.0000000001
 43
0.0000000001
 12
1.0
 22
0.0
 32
0.0
 13
1.0
 23
0.0
 33
0.0
 40
0.0
 40
0.0
 40
0.0
 40
0.0
 40
1.0
 40
1.0
 40
1.0
 40
2.0
 40
2.0
 40
2.0
 40
3.0
 40
3.0
 40
3.0
 40
3.0
 10
2.800843602063954
 20
-1.434755926398187
 30
0.0
 10
2.800843602063954
 20
-1.434755926398187
 30
0.0
 10
2.525111649912257
 20
-1.2316122528726
 30
0.0
 10
2.522809989377695
 20
-0.8323499074455564
 30
0.0
 10
2.522809989377695
 20
-0.8323499074455564
 30
0.0
 10
2.865718253558397
 20
-0.8601536943171039
 30
0.0
 10
3.051073427878691
 20
-1.133553342524781
 30
0.0
 10
3.051073427878691
 20
-1.133553342524781
 30
0.0
 10
2.874986182515588
 20
-1.230864894163523
 30
0.0
 10
2.800843602063954
 20
-1.434755926398187
 30
0.0
  0
SPLINE
  5
44
330
1F
100
AcDbEntity
  8
Layer 1
370
     0
100
AcDbSpline
210
0.0
220
0.0
230
1.0
 70
    11
 71
     3
 72
    14
 73
    10
 74
     0
 42
0.0000000001
 43
0.0000000001
 12
1.0
 22
0.0
 32
0.0
 13
1.0
 23
0.0
 33
0.0
 40
0.0
 40
0.0
 40
0.0
 40
0.0
 40
1.0
 40
1.0
 40
1.0
 40
2.0
 40
2.0
 40
2.0
 40
3.0
 40
3.0
 40
3.0
 40
3.0
 10
2.99956951738899
 20
-2.203994029844037
 30
0.0
 10
3.208284332999862
 20
-2.146421873070722
 30
0.0
 10
3.378049672745343
 20
-2.150848994535295
 30
0.0
 10
3.514893776235517
 20
-2.188462928470711
 30
0.0
 10
3.293792213546668
 20
-2.4186426012191
 30
0.0
 10
3.411925110723738
 20
-2.619715290987086
 30
0.0
 10
3.469639418868812
 20
-2.692435506515165
 30
0.0
 10
3.072780878674621
 20
-2.596079859011145
 30
0.0
 10
2.99956951738899
 20
-2.203994029844037
 30
0.0
 10
2.99956951738899
 20
-2.203994029844037
 30
0.0
  0
SPLINE
  5
45
330
1F
100
AcDbEntity
  8
Layer 1
370
     0
100
AcDbSpline
210
0.0
220
0.0
230
1.0
 70
    11
 71
     3
 72
    14
 73
    10
 74
     0
 42
0.0000000001
 43
0.0000000001
 12
1.0
 22
0.0
 32
0.0
 13
1.0
 23
0.0
 33
0.0
 40
0.0
 40
0.0
 40
0.0
 40
0.0
 40
1.0
 40
1.0
 40
1.0
 40
2.0
 40
2.0
 40
2.0
 40
3.0
 40
3.0
 40
3.0
 40
3.0
 10
3.511623443478937
 20
-2.701352738674915
 30
0.0
 10
3.701271248744408
 20
-2.462992978006014
 30
0.0
 10
3.61073103939576
 20
-2.275204206249214
 30
0.0
 10
3.559898730297214
 20
-2.202427811137088
 30
0.0
 10
3.905161429773266
 20
-2.321701324111624
 30
0.0
 10
4.02108970387917
 20
-2.653949086615285
 30
0.0
 10
4.02108970387917
 20
-2.653949086615285
 30
0.0
 10
3.812211456751028
 20
-2.716899161752975
 30
0.0
 10
3.645098474337525
 20
-2.725292051128235
 30
0.0
 10
3.511623443478937
 20
-2.701352738674915
 30
0.0
  0
SPLINE
  5
46
330
1F
100
AcDbEntity
  8
Layer 1
370
     0
100
AcDbSpline
210
0.0
220
0.0
230
1.0
 70
    11
 71
     3
 72
    14
 73
    10
 74
     0
 42
0.0000000001
 43
0.0000000001
 12
1.0
 22
0.0
 32
0.0
 13
1.0
 23
0.0
 33
0.0
 40
0.0
 40
0.0
 40
0.0
 40
0.0
 40
1.0
 40
1.0
 40
1.0
 40
2.0
 40
2.0
 40
2.0
 40
3.0
 40
3.0
 40
3.0
 40
3.0
 10
4.280230803412906
 20
-3.234250992860337
 30
0.0
 10
4.222391368012445
 20
-3.237183396906756
 30
0.0
 10
3.974374677327078
 20
-3.125801413080088
 30
0.0
 10
3.976571639545909
 20
-2.930591828993316
 30
0.0
 10
3.978299587358454
 20
-2.777065793862562
 30
0.0
 10
4.535531262291392
 20
-2.821469796616081
 30
0.0
 10
4.562199540600381
 20
-2.930591828993316
 30
0.0
 10
4.595170997999023
 20
-3.065505397686012
 30
0.0
 10
4.338071090019209
 20
-3.231319440019724
 30
0.0
 10
4.280230803412906
 20
-3.234250992860337
 30
0.0
  0
SPLINE
  5
47
330
1F
100
AcDbEntity
  8
Layer 1
370
     0
100
AcDbSpline
210
0.0
220
0.0
230
1.0
 70
    11
 71
     3
 72
    14
 73
    10
 74
     0
 42
0.0000000001
 43
0.0000000001
 12
1.0
 22
0.0
 32
0.0
 13
1.0
 23
0.0
 33
0.0
 40
0.0
 40
0.0
 40
0.0
 40
0.0
 40
1.0
 40
1.0
 40
1.0
 40
2.0
 40
2.0
 40
2.0
 40
3.0
 40
3.0
 40
3.0
 40
3.0
 10
4.54479408401365
 20
-2.653949086615285
 30
0.0
 10
4.54479408401365
 20
-2.653949086615285
 30
0.0
 10
4.666977869683326
 20
-2.303898354407415
 30
0.0
 10
5.033942061514532
 20
-2.193442482511816
 30
0.0
 10
4.861385617888597
 20
-2.459320876102892
 30
0.0
 10
5.012461882672293
 20
-2.634043638538174
 30
0.0
 10
5.08324815857961
 20
-2.69549474022862
 30
0.0
 10
4.94520811091378
 20
-2.726204543766193
 30
0.0
 10
4.769099585405178
 20
-2.721547596730488
 30
0.0
 10
4.54479408401365
 20
-2.653949086615285
 30
0.0
  0
SPLINE
  5
48
330
1F
100
AcDbEntity
  8
Layer 1
370
     0
100
AcDbSpline
210
0.0
220
0.0
230
1.0
 70
    11
 71
     3
 72
    14
 73
    10
 74
     0
 42
0.0000000001
 43
0.0000000001
 12
1.0
 22
0.0
 32
0.0
 13
1.0
 23
0.0
 33
0.0
 40
0.0
 40
0.0
 40
0.0
 40
0.0
 40
1.0
 40
1.0
 40
1.0
 40
2.0
 40
2.0
 40
2.0
 40
3.0
 40
3.0
 40
3.0
 40
3.0
 10
5.135358978818279
 20
-2.681701801137681
 30
0.0
 10
5.275469159035916
 20
-2.398242602561153
 30
0.0
 10
5.120250926736995
 20
-2.231204526259729
 30
0.0
 10
5.066201059642682
 20
-2.184524399146236
 30
0.0
 10
5.200368120832106
 20
-2.150665985284212
 30
0.0
 10
5.365237324706741
 20
-2.148528607472725
 30
0.0
 10
5.56631427050383
 20
-2.203994029844037
 30
0.0
 10
5.56631427050383
 20
-2.203994029844037
 30
0.0
 10
5.497966699267914
 20
-2.570054241095489
 30
0.0
 10
5.135358978818279
 20
-2.681701801137681
 30
0.0
  0
ENDSEC
  0
SECTION
  2
OBJECTS
  0
DICTIONARY
  5
C
330
0
100
AcDbDictionary
281
     1
  3
ACAD_GROUP
350
D
  3
ACAD_LAYOUT
350
1A
  3
ACAD_MATERIAL
350
3B
  3
ACAD_MLEADERSTYLE
350
4A
  3
ACAD_MLINESTYLE
350
17
  3
ACAD_PLOTSETTINGS
350
19
  3
ACAD_PLOTSTYLENAME
350
E
  3
ACAD_TABLESTYLE
350
49
  3
ACAD_VISUALSTYLE
350
2A
  0
SUN
  5
3F
330
29
100
AcDbSun
 90
        1
290
     0
 63
     7
421
 16777215
 40
1.0
291
     1
 91
  2455826
 92
 54000000
292
     0
 70
     2
 71
   256
280
     1
  0
DICTIONARY
  5
D
102
{ACAD_REACTORS
330
C
102
}
330
C
100
AcDbDictionary
281
     1
  0
DICTIONARY
  5
1A
102
{ACAD_REACTORS
330
C
102
}
330
C
100
AcDbDictionary
281
     1
  3
Layout1
350
1E
  3
Layout2
350
26
  3
Model
350
22
  0
DICTIONARY
  5
3B
102
{ACAD_REACTORS
330
C
102
}
330
C
100
AcDbDictionary
281
     1
  3
ByBlock
350
3D
  3
ByLayer
350
3C
  3
Global
350
3E
  0
DICTIONARY
  5
4A
102
{ACAD_REACTORS
330
C
102
}
330
C
100
AcDbDictionary
281
     1
  0
DICTIONARY
  5
17
102
{ACAD_REACTORS
330
C
102
}
330
C
100
AcDbDictionary
281
     1
  3
Standard
350
18
  0
DICTIONARY
  5
19
102
{ACAD_REACTORS
330
C
102
}
330
C
100
AcDbDictionary
281
     1
  0
ACDBDICTIONARYWDFLT
  5
E
102
{ACAD_REACTORS
330
C
102
}
330
C
100
AcDbDictionary
281
     1
  3
Normal
350
F
100
AcDbDictionaryWithDefault
340
F
  0
DICTIONARY
  5
49
102
{ACAD_REACTORS
330
C
102
}
330
C
100
AcDbDictionary
281
     1
  0
DICTIONARY
  5
2A
102
{ACAD_REACTORS
330
C
102
}
330
C
100
AcDbDictionary
281
     1
  3
2dWireframe
350
2F
  3
3D Hidden
350
31
  3
3dWireframe
350
30
  3
Basic
350
32
  3
Brighten
350
36
  3
ColorChange
350
3A
  3
Conceptual
350
34
  3
Dim
350
35
  3
Facepattern
350
39
  3
Flat
350
2B
  3
FlatWithEdges
350
2C
  3
Gouraud
350
2D
  3
GouraudWithEdges
350
2E
  3
Linepattern
350
38
  3
Realistic
350
33
  3
Thicken
350
37
  0
LAYOUT
  5
1E
102
{ACAD_REACTORS
330
1A
102
}
330
1A
100
AcDbPlotSettings
  1

  2
none_device
  4

  6

 40
0.0
 41
0.0
 42
0.0
 43
0.0
 44
0.0
 45
0.0
 46
0.0
 47
0.0
 48
0.0
 49
0.0
140
0.0
141
0.0
142
1.0
143
1.0
 70
   688
 72
     0
 73
     0
 74
     5
  7

 75
    16
 76
     0
 77
     2
 78
   300
147
1.0
148
0.0
149
0.0
100
AcDbLayout
  1
Layout1
 70
     1
 71
     1
 10
0.0
 20
0.0
 11
12.0
 21
9.0
 12
0.0
 22
0.0
 32
0.0
 14
1.000000000000000E+20
 24
1.000000000000000E+20
 34
1.000000000000000E+20
 15
-1.000000000000000E+20
 25
-1.000000000000000E+20
 35
-1.000000000000000E+20
146
0.0
 13
0.0
 23
0.0
 33
0.0
 16
1.0
 26
0.0
 36
0.0
 17
0.0
 27
1.0
 37
0.0
 76
     0
330
1B
  0
LAYOUT
  5
26
102
{ACAD_REACTORS
330
1A
102
}
330
1A
100
AcDbPlotSettings
  1

  2
none_device
  4

  6

 40
0.0
 41
0.0
 42
0.0
 43
0.0
 44
0.0
 45
0.0
 46
0.0
 47
0.0
 48
0.0
 49
0.0
140
0.0
141
0.0
142
1.0
143
1.0
 70
   688
 72
     0
 73
     0
 74
     5
  7

 75
    16
 76
     0
 77
     2
 78
   300
147
1.0
148
0.0
149
0.0
100
AcDbLayout
  1
Layout2
 70
     1
 71
     2
 10
0.0
 20
0.0
 11
0.0
 21
0.0
 12
0.0
 22
0.0
 32
0.0
 14
0.0
 24
0.0
 34
0.0
 15
0.0
 25
0.0
 35
0.0
146
0.0
 13
0.0
 23
0.0
 33
0.0
 16
1.0
 26
0.0
 36
0.0
 17
0.0
 27
1.0
 37
0.0
 76
     0
330
23
  0
LAYOUT
  5
22
102
{ACAD_REACTORS
330
1A
102
}
330
1A
100
AcDbPlotSettings
  1

  2
none_device
  4

  6

 40
0.0
 41
0.0
 42
0.0
 43
0.0
 44
0.0
 45
0.0
 46
0.0
 47
0.0
 48
0.0
 49
0.0
140
0.0
141
0.0
142
1.0
143
1.0
 70
  1712
 72
     0
 73
     0
 74
     0
  7

 75
     0
 76
     0
 77
     2
 78
   300
147
1.0
148
0.0
149
0.0
100
AcDbLayout
  1
Model
 70
     1
 71
     0
 10
0.0
 20
0.0
 11
12.0
 21
9.0
 12
0.0
 22
0.0
 32
0.0
 14
1.000000000000000E+20
 24
1.000000000000000E+20
 34
1.000000000000000E+20
 15
-1.000000000000000E+20
 25
-1.000000000000000E+20
 35
-1.000000000000000E+20
146
0.0
 13
0.0
 23
0.0
 33
0.0
 16
1.0
 26
0.0
 36
0.0
 17
0.0
 27
1.0
 37
0.0
 76
     0
330
1F
331
29
  0
MATERIAL
  5
3D
102
{ACAD_REACTORS
330
3B
102
}
330
3B
100
AcDbMaterial
  1
ByBlock
 72
     1
 94
      127
  0
MATERIAL
  5
3C
102
{ACAD_REACTORS
330
3B
102
}
330
3B
100
AcDbMaterial
  1
ByLayer
 72
     1
 94
      127
  0
MATERIAL
  5
3E
102
{ACAD_REACTORS
330
3B
102
}
330
3B
100
AcDbMaterial
  1
Global
 72
     1
 94
      127
  0
MLINESTYLE
  5
18
102
{ACAD_REACTORS
330
17
102
}
330
17
100
AcDbMlineStyle
  2
Standard
 70
     0
  3

 62
   256
 51
90.0
 52
90.0
 71
     2
 49
0.5
 62
   256
  6
BYLAYER
 49
-0.5
 62
   256
  6
BYLAYER
  0
ACDBPLACEHOLDER
  5
F
102
{ACAD_REACTORS
330
E
102
}
330
E
  0
VISUALSTYLE
  5
2F
102
{ACAD_REACTORS
330
2A
102
}
330
2A
100
AcDbVisualStyle
  2
2dWireframe
 70
     4
177
     2
291
     0
 71
     0
176
     1
 72
     2
176
     1
 73
     0
176
     1
 90
        0
176
     1
 40
-0.6
176
     1
 41
-30.0
176
     1
 62
     5
 63
     7
421
 16777215
176
     1
 74
     1
176
     1
 91
        4
176
     1
 64
     7
176
     1
 65
   257
176
     1
 75
     1
176
     1
175
     1
176
     1
 42
1.0
176
     1
 92
        0
176
     1
 66
   257
176
     1
 43
1.0
176
     1
 76
     1
176
     1
 77
     6
176
     1
 78
     2
176
     1
 67
     7
176
     1
 79
     5
176
     1
170
     0
176
     1
171
     0
176
     1
290
     0
176
     1
 93
        1
176
     1
 44
0.0
176
     1
173
     0
176
     1
  0
VISUALSTYLE
  5
31
102
{ACAD_REACTORS
330
2A
102
}
330
2A
100
AcDbVisualStyle
  2
3D Hidden
 70
     6
177
     2
291
     0
 71
     1
176
     1
 72
     2
176
     1
 73
     2
176
     1
 90
        0
176
     1
 40
-0.6
176
     1
 41
-30.0
176
     1
 62
     5
 63
     7
421
 16777215
176
     1
 74
     2
176
     1
 91
        2
176
     1
 64
     7
176
     1
 65
   257
176
     1
 75
     2
176
     1
175
     1
176
     1
 42
40.0
176
     1
 92
        0
176
     1
 66
   257
176
     1
 43
1.0
176
     1
 76
     1
176
     1
 77
     6
176
     1
 78
     2
176
     1
 67
     7
176
     1
 79
     3
176
     1
170
     0
176
     1
171
     0
176
     1
290
     0
176
     1
 93
        1
176
     1
 44
0.0
176
     1
173
     0
176
     1
  0
VISUALSTYLE
  5
30
102
{ACAD_REACTORS
330
2A
102
}
330
2A
100
AcDbVisualStyle
  2
3dWireframe
 70
     5
177
     2
291
     0
 71
     0
176
     1
 72
     2
176
     1
 73
     0
176
     1
 90
        0
176
     1
 40
-0.6
176
     1
 41
-30.0
176
     1
 62
     5
 63
     7
421
 16777215
176
     1
 74
     1
176
     1
 91
        4
176
     1
 64
     7
176
     1
 65
   257
176
     1
 75
     1
176
     1
175
     1
176
     1
 42
1.0
176
     1
 92
        0
176
     1
 66
   257
176
     1
 43
1.0
176
     1
 76
     1
176
     1
 77
     6
176
     1
 78
     2
176
     1
 67
     7
176
     1
 79
     5
176
     1
170
     0
176
     1
171
     0
176
     1
290
     0
176
     1
 93
        1
176
     1
 44
0.0
176
     1
173
     0
176
     1
  0
VISUALSTYLE
  5
32
102
{ACAD_REACTORS
330
2A
102
}
330
2A
100
AcDbVisualStyle
  2
Basic
 70
     7
177
     2
291
     1
 71
     1
176
     1
 72
     0
176
     1
 73
     1
176
     1
 90
        0
176
     1
 40
-0.6
176
     1
 41
-30.0
176
     1
 62
     5
 63
     7
421
 16777215
176
     1
 74
     0
176
     1
 91
        4
176
     1
 64
     7
176
     1
 65
   257
176
     1
 75
     1
176
     1
175
     1
176
     1
 42
1.0
176
     1
 92
        8
176
     1
 66
     7
176
     1
 43
1.0
176
     1
 76
     1
176
     1
 77
     6
176
     1
 78
     2
176
     1
 67
     7
176
     1
 79
     5
176
     1
170
     0
176
     1
171
     0
176
     1
290
     0
176
     1
 93
        1
176
     1
 44
0.0
176
     1
173
     0
176
     1
  0
VISUALSTYLE
  5
36
102
{ACAD_REACTORS
330
2A
102
}
330
2A
100
AcDbVisualStyle
  2
Brighten
 70
    12
177
     2
291
     1
 71
     2
176
     1
 72
     2
176
     1
 73
     0
176
     1
 90
        0
176
     1
 40
-0.6
176
     1
 41
-30.0
176
     1
 62
     5
 63
     7
421
 16777215
176
     1
 74
     1
176
     1
 91
        4
176
     1
 64
     7
176
     1
 65
   257
176
     1
 75
     1
176
     1
175
     1
176
     1
 42
1.0
176
     1
 92
        8
176
     1
 66
     7
176
     1
 43
1.0
176
     1
 76
     1
176
     1
 77
     6
176
     1
 78
     2
176
     1
 67
     7
176
     1
 79
     5
176
     1
170
     0
176
     1
171
     0
176
     1
290
     0
176
     1
 93
        1
176
     1
 44
50.0
176
     1
173
     0
176
     1
  0
VISUALSTYLE
  5
3A
102
{ACAD_REACTORS
330
2A
102
}
330
2A
100
AcDbVisualStyle
  2
ColorChange
 70
    16
177
     2
291
     1
 71
     2
176
     1
 72
     2
176
     1
 73
     3
176
     1
 90
        0
176
     1
 40
-0.6
176
     1
 41
-30.0
176
     1
 62
     5
 63
     8
421
  8421504
176
     1
 74
     1
176
     1
 91
        4
176
     1
 64
     7
176
     1
 65
   257
176
     1
 75
     1
176
     1
175
     1
176
     1
 42
1.0
176
     1
 92
        8
176
     1
 66
     8
424
  8421504
176
     1
 43
1.0
176
     1
 76
     1
176
     1
 77
     6
176
     1
 78
     2
176
     1
 67
     7
176
     1
 79
     5
176
     1
170
     0
176
     1
171
     0
176
     1
290
     0
176
     1
 93
        1
176
     1
 44
0.0
176
     1
173
     0
176
     1
  0
VISUALSTYLE
  5
34
102
{ACAD_REACTORS
330
2A
102
}
330
2A
100
AcDbVisualStyle
  2
Conceptual
 70
     9
177
     2
291
     0
 71
     3
176
     1
 72
     2
176
     1
 73
     0
176
     1
 90
        0
176
     1
 40
-0.6
176
     1
 41
-30.0
176
     1
 62
     5
 63
     7
421
 16777215
176
     1
 74
     2
176
     1
 91
        2
176
     1
 64
     7
176
     1
 65
   257
176
     1
 75
     1
176
     1
175
     1
176
     1
 42
40.0
176
     1
 92
        8
176
     1
 66
     7
176
     1
 43
1.0
176
     1
 76
     1
176
     1
 77
     6
176
     1
 78
     2
176
     1
 67
     7
176
     1
 79
     3
176
     1
170
     0
176
     1
171
     0
176
     1
290
     0
176
     1
 93
        1
176
     1
 44
0.0
176
     1
173
     0
176
     1
  0
VISUALSTYLE
  5
35
102
{ACAD_REACTORS
330
2A
102
}
330
2A
100
AcDbVisualStyle
  2
Dim
 70
    11
177
     2
291
     1
 71
     2
176
     1
 72
     2
176
     1
 73
     0
176
     1
 90
        0
176
     1
 40
-0.6
176
     1
 41
-30.0
176
     1
 62
     5
 63
     7
421
 16777215
176
     1
 74
     1
176
     1
 91
        4
176
     1
 64
     7
176
     1
 65
   257
176
     1
 75
     1
176
     1
175
     1
176
     1
 42
1.0
176
     1
 92
        8
176
     1
 66
     7
176
     1
 43
1.0
176
     1
 76
     1
176
     1
 77
     6
176
     1
 78
     2
176
     1
 67
     7
176
     1
 79
     5
176
     1
170
     0
176
     1
171
     0
176
     1
290
     0
176
     1
 93
        1
176
     1
 44
-50.0
176
     1
173
     0
176
     1
  0
VISUALSTYLE
  5
39
102
{ACAD_REACTORS
330
2A
102
}
330
2A
100
AcDbVisualStyle
  2
Facepattern
 70
    15
177
     2
291
     1
 71
     2
176
     1
 72
     2
176
     1
 73
     0
176
     1
 90
        0
176
     1
 40
-0.6
176
     1
 41
-30.0
176
     1
 62
     5
 63
     7
421
 16777215
176
     1
 74
     1
176
     1
 91
        4
176
     1
 64
     7
176
     1
 65
   257
176
     1
 75
     1
176
     1
175
     1
176
     1
 42
1.0
176
     1
 92
        8
176
     1
 66
     7
176
     1
 43
1.0
176
     1
 76
     1
176
     1
 77
     6
176
     1
 78
     2
176
     1
 67
     7
176
     1
 79
     5
176
     1
170
     0
176
     1
171
     0
176
     1
290
     0
176
     1
 93
        1
176
     1
 44
0.0
176
     1
173
     0
176
     1
  0
VISUALSTYLE
  5
2B
102
{ACAD_REACTORS
330
2A
102
}
330
2A
100
AcDbVisualStyle
  2
Flat
 70
     0
177
     2
291
     1
 71
     2
176
     1
 72
     1
176
     1
 73
     1
176
     1
 90
        2
176
     1
 40
-0.6
176
     1
 41
30.0
176
     1
 62
     5
 63
     7
421
 16777215
176
     1
 74
     0
176
     1
 91
        4
176
     1
 64
     7
176
     1
 65
   257
176
     1
 75
     1
176
     1
175
     1
176
     1
 42
1.0
176
     1
 92
        8
176
     1
 66
     7
176
     1
 43
1.0
176
     1
 76
     1
176
     1
 77
     6
176
     1
 78
     2
176
     1
 67
     7
176
     1
 79
     5
176
     1
170
     0
176
     1
171
     0
176
     1
290
     0
176
     1
 93
       13
176
     1
 44
0.0
176
     1
173
     0
176
     1
  0
VISUALSTYLE
  5
2C
102
{ACAD_REACTORS
330
2A
102
}
330
2A
100
AcDbVisualStyle
  2
FlatWithEdges
 70
     1
177
     2
291
     1
 71
     2
176
     1
 72
     1
176
     1
 73
     1
176
     1
 90
        2
176
     1
 40
-0.6
176
     1
 41
30.0
176
     1
 62
     5
 63
     7
421
 16777215
176
     1
 74
     1
176
     1
 91
        4
176
     1
 64
     7
176
     1
 65
   257
176
     1
 75
     1
176
     1
175
     1
176
     1
 42
1.0
176
     1
 92
        0
176
     1
 66
   257
176
     1
 43
1.0
176
     1
 76
     1
176
     1
 77
     6
176
     1
 78
     2
176
     1
 67
     7
176
     1
 79
     5
176
     1
170
     0
176
     1
171
     0
176
     1
290
     0
176
     1
 93
       13
176
     1
 44
0.0
176
     1
173
     0
176
     1
  0
VISUALSTYLE
  5
2D
102
{ACAD_REACTORS
330
2A
102
}
330
2A
100
AcDbVisualStyle
  2
Gouraud
 70
     2
177
     2
291
     1
 71
     2
176
     1
 72
     2
176
     1
 73
     1
176
     1
 90
        2
176
     1
 40
-0.6
176
     1
 41
30.0
176
     1
 62
     5
 63
     7
421
 16777215
176
     1
 74
     0
176
     1
 91
        4
176
     1
 64
     7
176
     1
 65
   257
176
     1
 75
     1
176
     1
175
     1
176
     1
 42
1.0
176
     1
 92
        0
176
     1
 66
     7
176
     1
 43
1.0
176
     1
 76
     1
176
     1
 77
     6
176
     1
 78
     2
176
     1
 67
     7
176
     1
 79
     5
176
     1
170
     0
176
     1
171
     0
176
     1
290
     0
176
     1
 93
       13
176
     1
 44
0.0
176
     1
173
     0
176
     1
  0
VISUALSTYLE
  5
2E
102
{ACAD_REACTORS
330
2A
102
}
330
2A
100
AcDbVisualStyle
  2
GouraudWithEdges
 70
     3
177
     2
291
     1
 71
     2
176
     1
 72
     2
176
     1
 73
     1
176
     1
 90
        2
176
     1
 40
-0.6
176
     1
 41
30.0
176
     1
 62
     5
 63
     7
421
 16777215
176
     1
 74
     1
176
     1
 91
        4
176
     1
 64
     7
176
     1
 65
   257
176
     1
 75
     1
176
     1
175
     1
176
     1
 42
1.0
176
     1
 92
        0
176
     1
 66
   257
176
     1
 43
1.0
176
     1
 76
     1
176
     1
 77
     6
176
     1
 78
     2
176
     1
 67
     7
176
     1
 79
     5
176
     1
170
     0
176
     1
171
     0
176
     1
290
     0
176
     1
 93
       13
176
     1
 44
0.0
176
     1
173
     0
176
     1
  0
VISUALSTYLE
  5
38
102
{ACAD_REACTORS
330
2A
102
}
330
2A
100
AcDbVisualStyle
  2
Linepattern
 70
    14
177
     2
291
     1
 71
     2
176
     1
 72
     2
176
     1
 73
     0
176
     1
 90
        0
176
     1
 40
-0.6
176
     1
 41
-30.0
176
     1
 62
     5
 63
     7
421
 16777215
176
     1
 74
     1
176
     1
 91
        4
176
     1
 64
     7
176
     1
 65
   257
176
     1
 75
     7
176
     1
175
     7
176
     1
 42
1.0
176
     1
 92
        8
176
     1
 66
     7
176
     1
 43
1.0
176
     1
 76
     1
176
     1
 77
     6
176
     1
 78
     2
176
     1
 67
     7
176
     1
 79
     5
176
     1
170
     0
176
     1
171
     0
176
     1
290
     0
176
     1
 93
        1
176
     1
 44
0.0
176
     1
173
     0
176
     1
  0
VISUALSTYLE
  5
33
102
{ACAD_REACTORS
330
2A
102
}
330
2A
100
AcDbVisualStyle
  2
Realistic
 70
     8
177
     2
291
     0
 71
     2
176
     1
 72
     2
176
     1
 73
     0
176
     1
 90
        0
176
     1
 40
-0.6
176
     1
 41
-30.0
176
     1
 62
     5
 63
     7
421
 16777215
176
     1
 74
     1
176
     1
 91
        0
176
     1
 64
     7
176
     1
 65
   257
176
     1
 75
     1
176
     1
175
     1
176
     1
 42
1.0
176
     1
 92
        8
176
     1
 66
     8
424
  7895160
176
     1
 43
1.0
176
     1
 76
     1
176
     1
 77
     6
176
     1
 78
     2
176
     1
 67
     7
176
     1
 79
     5
176
     1
170
     0
176
     1
171
     0
176
     1
290
     0
176
     1
 93
       13
176
     1
 44
0.0
176
     1
173
     0
176
     1
  0
VISUALSTYLE
  5
37
102
{ACAD_REACTORS
330
2A
102
}
330
2A
100
AcDbVisualStyle
  2
Thicken
 70
    13
177
     2
291
     1
 71
     2
176
     1
 72
     2
176
     1
 73
     0
176
     1
 90
        0
176
     1
 40
-0.6
176
     1
 41
-30.0
176
     1
 62
     5
 63
     7
421
 16777215
176
     1
 74
     1
176
     1
 91
        4
176
     1
 64
     7
176
     1
 65
   257
176
     1
 75
     1
176
     1
175
     1
176
     1
 42
1.0
176
     1
 92
       12
176
     1
 66
     7
176
     1
 43
1.0
176
     1
 76
     1
176
     1
 77
     6
176
     1
 78
     2
176
     1
 67
     7
176
     1
 79
     5
176
     1
170
     0
176
     1
171
     0
176
     1
290
     0
176
     1
 93
        1
176
     1
 44
0.0
176
     1
173
     0
176
     1
  0
ENDSEC
  0
EOF
